<svg width="20" height="20" viewBox="0 0 20 20" fill="none" xmlns="http://www.w3.org/2000/svg"><path fill-rule="evenodd" clip-rule="evenodd" d="M12.5 4.167a3.333 3.333 0 1 1 .59 1.893L7.306 8.879a3.328 3.328 0 0 1 .025 2.17l5.75 2.903a3.333 3.333 0 1 1-.568 1.58L6.42 12.456a3.333 3.333 0 1 1-.064-4.968l6.158-3.002a3.395 3.395 0 0 1-.015-.32zm5 0a1.667 1.667 0 1 0-3.333 0 1.667 1.667 0 0 0 3.333 0zm0 11.666a1.667 1.667 0 1 0-3.333 0 1.667 1.667 0 0 0 3.333 0zm-13.333-7.5a1.667 1.667 0 1 1 0 3.334 1.667 1.667 0 0 1 0-3.333z" fill="#fff"/></svg>