<svg width="23" height="24" viewBox="0 0 23 24" fill="none" xmlns="http://www.w3.org/2000/svg"><path fill-rule="evenodd" clip-rule="evenodd" d="M11.993 17.553l-4.264 3.264c-.964.74-2.353.049-2.355-1.166l-.003-2.223a4.53 4.53 0 0 1-3.454-4.407v-5.61c0-2.502 2.018-4.531 4.51-4.531h10.147c2.491 0 4.51 2.03 4.51 4.531v5.61c0 2.502-2.019 4.532-4.51 4.532h-4.581zM7.29 18.737l3.796-2.907a.958.958 0 0 1 .582-.197h4.906a2.602 2.602 0 0 0 2.593-2.612v-5.61A2.602 2.602 0 0 0 16.574 4.8H6.427A2.602 2.602 0 0 0 3.833 7.41v5.61a2.603 2.603 0 0 0 2.521 2.61.96.96 0 0 1 .932.959l.004 2.148z" fill="#fff"/></svg>