<svg width="20" height="20" viewBox="0 0 20 20" fill="none" xmlns="http://www.w3.org/2000/svg">
<path d="M11.125 16.75H8.125C7.918 16.75 7.75 16.582 7.75 16.375C7.75 16.168 7.918 16 8.125 16H11.125C11.7453 16 12.25 15.4953 12.25 14.875V11.125C12.25 10.918 12.418 10.75 12.625 10.75C12.832 10.75 13 10.918 13 11.125V14.875C13 15.9085 12.1593 16.75 11.125 16.75Z" fill="#F00D1A" stroke="#F00D1A" stroke-width="0.3"/>
<path d="M18.625 9.25H11.125C10.918 9.25 10.75 9.082 10.75 8.875C10.75 8.668 10.918 8.5 11.125 8.5H18.625C18.832 8.5 19 8.668 19 8.875C19 9.082 18.832 9.25 18.625 9.25Z" fill="#F00D1A" stroke="#F00D1A" stroke-width="0.3"/>
<path d="M7 19C6.835 19 6.67375 18.9722 6.5215 18.9183L2.029 17.4205C1.414 17.2157 1 16.6442 1 16V2.5C1 1.67275 1.67275 1 2.5 1C2.6665 1 2.8285 1.02775 2.97925 1.0825L7.471 2.5795C8.086 2.7835 8.5 3.355 8.5 4V17.5C8.5 18.3272 7.82725 19 7 19ZM2.5 1.75C2.086 1.75 1.75 2.08675 1.75 2.5V16C1.75 16.321 1.957 16.606 2.266 16.7095L6.766 18.2095C7.258 18.3842 7.75 17.9905 7.75 17.5V4C7.75 3.67825 7.543 3.39325 7.234 3.29125L2.734 1.79125C2.65675 1.7635 2.578 1.75 2.5 1.75Z" fill="#F00D1A" stroke="#F00D1A" stroke-width="0.3"/>
<path d="M12.625 7.00001C12.418 7.00001 12.25 6.83201 12.25 6.62501V2.875C12.25 2.25475 11.7452 1.75 11.125 1.75H2.5C2.293 1.75 2.125 1.582 2.125 1.375C2.125 1.168 2.293 1 2.5 1H11.125C12.1592 1 13 1.8415 13 2.875V6.62501C13 6.83201 12.832 7.00001 12.625 7.00001Z" fill="#F00D1A" stroke="#F00D1A" stroke-width="0.3"/>
<path d="M15.6249 12.2506C15.5289 12.2506 15.4329 12.2139 15.3594 12.1411C15.2132 11.9949 15.2132 11.7571 15.3594 11.6109L18.094 8.87639L15.3594 6.14189C15.2132 5.99564 15.2132 5.75789 15.3594 5.61164C15.5057 5.46539 15.7434 5.46539 15.8897 5.61164L18.8897 8.61164C19.036 8.75789 19.036 8.99564 18.8897 9.14189L15.8897 12.1419C15.8169 12.2139 15.7209 12.2506 15.6249 12.2506Z" fill="#F00D1A" stroke="#F00D1A" stroke-width="0.3"/>
</svg>
