<svg width="20" height="20" viewBox="0 0 20 20" fill="none" xmlns="http://www.w3.org/2000/svg">
<path d="M1.87501 7.63212V17.1634C1.87501 17.4405 1.92969 17.7149 2.03593 17.9708C2.14217 18.2268 2.29788 18.4593 2.49412 18.6549C2.69037 18.8506 2.9233 19.0056 3.17956 19.1111C3.43583 19.2166 3.71039 19.2704 3.98751 19.2696H16.0188C16.5774 19.2696 17.1131 19.0477 17.5081 18.6527C17.9031 18.2577 18.125 17.722 18.125 17.1634V7.63212C18.125 7.07293 17.9033 6.53655 17.5085 6.14056C17.1137 5.74457 16.578 5.52127 16.0188 5.51962H14.6813C14.8657 5.32937 15.0292 5.11983 15.1688 4.89462C15.436 4.44704 15.5833 3.93809 15.5965 3.41695C15.6096 2.89582 15.4881 2.3801 15.2438 1.91962C15.0312 1.54841 14.7218 1.24188 14.3487 1.03274C13.9755 0.823599 13.5526 0.719695 13.125 0.732116C12.6567 0.717189 12.1908 0.803876 11.7592 0.986213C11.3277 1.16855 10.9407 1.44221 10.625 1.78837C10.3753 2.05277 10.1648 2.35165 10 2.67587C9.84485 2.35356 9.64497 2.05478 9.40626 1.78837C9.09055 1.44221 8.70361 1.16855 8.27204 0.986213C7.84047 0.803876 7.37453 0.717189 6.90626 0.732116C6.47849 0.719287 6.0552 0.822283 5.68115 1.03021C5.3071 1.23814 4.99618 1.54328 4.78126 1.91337C4.53689 2.37385 4.41541 2.88957 4.42855 3.4107C4.44168 3.93184 4.589 4.44079 4.85626 4.88837C4.99587 5.11358 5.15931 5.32312 5.34376 5.51337H3.98751C3.70957 5.51337 3.43435 5.56822 3.17764 5.67477C2.92094 5.78132 2.68778 5.93749 2.49153 6.13431C2.29529 6.33114 2.13981 6.56476 2.03402 6.82178C1.92822 7.0788 1.87419 7.35418 1.87501 7.63212ZM16.875 7.63212V17.1634C16.875 17.2758 16.8529 17.3872 16.8098 17.491C16.7668 17.5949 16.7037 17.6893 16.6242 17.7688C16.5447 17.8483 16.4503 17.9114 16.3464 17.9544C16.2426 17.9975 16.1312 18.0196 16.0188 18.0196H10.625L10.6688 6.76962H16.0375C16.2619 6.77613 16.4749 6.86986 16.6313 7.03091C16.7877 7.19196 16.8751 7.40764 16.875 7.63212ZM13.125 2.00712C13.3336 1.99306 13.5419 2.03772 13.7264 2.13604C13.9109 2.23436 14.0641 2.38239 14.1688 2.56337C14.3062 2.8332 14.3709 3.13417 14.3567 3.43663C14.3424 3.7391 14.2497 4.03264 14.0875 4.28837C13.8188 4.75712 13.1125 5.53837 11.4125 5.53837H10.625C10.625 4.78212 10.7688 3.43837 11.4938 2.64462C11.6991 2.4196 11.9522 2.24333 12.2344 2.1287C12.5166 2.01407 12.8209 1.96399 13.125 1.98212V2.00712ZM5.91876 4.26337C5.75661 4.00764 5.66385 3.7141 5.6496 3.41163C5.63535 3.10917 5.70012 2.8082 5.83751 2.53837C5.94167 2.35839 6.09392 2.211 6.27718 2.11275C6.46045 2.01449 6.66747 1.96925 6.87501 1.98212C7.17108 1.96394 7.46756 2.01043 7.74386 2.11836C8.02016 2.22629 8.26965 2.39307 8.47501 2.60712C9.20626 3.41962 9.33751 4.76337 9.37501 5.51962H8.59376C6.87501 5.51962 6.18751 4.73212 5.91876 4.26337ZM3.12501 7.63212C3.12501 7.40337 3.21588 7.18399 3.37763 7.02224C3.53938 6.86049 3.75876 6.76962 3.98751 6.76962H9.37501L9.33126 18.0196H3.98751C3.87454 18.0205 3.76253 17.9989 3.65792 17.9563C3.55331 17.9136 3.45818 17.8506 3.37801 17.7711C3.29783 17.6915 3.2342 17.5968 3.19078 17.4925C3.14736 17.3882 3.12501 17.2763 3.12501 17.1634V7.63212Z" fill="#F00D1A"/>
</svg>
