<svg width="20" height="20" viewBox="0 0 20 20" fill="none" xmlns="http://www.w3.org/2000/svg">
<g clip-path="url(#clip0_859_6125)">
<path d="M10.3767 19.8637C10.1585 20.0454 9.84165 20.0454 9.62351 19.8637C4.79572 15.8405 2.35303 11.7693 2.35303 7.64706C2.35303 3.4237 5.77673 0 10.0001 0C14.2234 0 17.6471 3.4237 17.6471 7.64706C17.6471 11.7693 15.2045 15.8405 10.3767 19.8637ZM16.4707 7.64706C16.4707 4.07345 13.5737 1.17647 10.0001 1.17647C6.42648 1.17647 3.5295 4.07345 3.5295 7.64706C3.5295 11.2646 5.66871 14.9304 10.0001 18.6417C14.3315 14.9304 16.4707 11.2646 16.4707 7.64706ZM13.2339 5C13.8842 5 14.4119 5.5251 14.4119 6.17572V10.589C14.4119 11.2382 13.8853 11.7647 13.2363 11.7647H6.76391C6.11444 11.7647 5.58832 11.2391 5.58832 10.589V6.17572C5.58832 5.52569 6.1153 5 6.76623 5H7.2836L7.70925 4.14869C7.80889 3.94941 8.01257 3.82353 8.23538 3.82353H11.7648C11.9876 3.82353 12.1913 3.94941 12.2909 4.14869L12.7166 5H13.2339ZM6.76479 10.5882H13.2354V6.17617L12.353 6.17647C12.1302 6.17647 11.9265 6.05059 11.8269 5.85131L11.4012 5H8.59893L8.17328 5.85131C8.07364 6.05059 7.86995 6.17647 7.64715 6.17647H6.76623L6.76479 10.5882ZM10.0001 10C8.86303 10 7.94126 9.07823 7.94126 7.94118C7.94126 6.80412 8.86303 5.88235 10.0001 5.88235C11.1371 5.88235 12.0589 6.80412 12.0589 7.94118C12.0589 9.07823 11.1371 10 10.0001 10ZM10.0001 8.82353C10.4874 8.82353 10.8824 8.42849 10.8824 7.94118C10.8824 7.45387 10.4874 7.05882 10.0001 7.05882C9.51278 7.05882 9.11773 7.45387 9.11773 7.94118C9.11773 8.42849 9.51278 8.82353 10.0001 8.82353Z" fill="#F00D1A"/>
</g>
<defs>
<clipPath id="clip0_859_6125">
<rect width="20" height="20" fill="white"/>
</clipPath>
</defs>
</svg>
