<svg width="20" height="20" viewBox="0 0 20 20" fill="none" xmlns="http://www.w3.org/2000/svg">
<path d="M9 9C9.79112 9 10.5645 8.7654 11.2223 8.32588C11.8801 7.88635 12.3928 7.26164 12.6955 6.53073C12.9983 5.79983 13.0775 4.99556 12.9231 4.21964C12.7688 3.44372 12.3878 2.73098 11.8284 2.17157C11.269 1.61216 10.5563 1.2312 9.78036 1.07686C9.00444 0.92252 8.20017 1.00173 7.46927 1.30448C6.73836 1.60723 6.11365 2.11992 5.67412 2.77772C5.2346 3.43552 5 4.20888 5 5C5.00121 6.0605 5.42303 7.07721 6.17291 7.82709C6.92279 8.57697 7.9395 8.99879 9 9ZM9 2.14286C9.56509 2.14286 10.1175 2.31043 10.5873 2.62437C11.0572 2.93832 11.4234 3.38455 11.6397 3.90662C11.8559 4.42869 11.9125 5.00317 11.8022 5.5574C11.692 6.11163 11.4199 6.62073 11.0203 7.02031C10.6207 7.41988 10.1116 7.692 9.5574 7.80224C9.00317 7.91249 8.42869 7.85591 7.90662 7.63966C7.38454 7.42341 6.93832 7.0572 6.62437 6.58734C6.31043 6.11749 6.14286 5.56509 6.14286 5C6.14376 4.24252 6.44508 3.51632 6.9807 2.9807C7.51632 2.44508 8.24252 2.14377 9 2.14286Z" fill="#F00D1A"/>
<path d="M8.5 11C6.51158 11.0023 4.60526 11.7856 3.19923 13.1783C1.7932 14.5709 1.00229 16.4591 1 18.4286C1 18.5801 1.06078 18.7255 1.16898 18.8326C1.27717 18.9398 1.42391 19 1.57692 19H15.4231C15.5761 19 15.7228 18.9398 15.831 18.8326C15.9392 18.7255 16 18.5801 16 18.4286C15.9977 16.4591 15.2068 14.5709 13.8008 13.1783C12.3947 11.7856 10.4884 11.0023 8.5 11ZM2.17981 17.8571C2.32292 16.2948 3.05069 14.842 4.22013 13.784C5.38958 12.726 6.91617 12.1394 8.5 12.1394C10.0838 12.1394 11.6104 12.726 12.7799 13.784C13.9493 14.842 14.6771 16.2948 14.8202 17.8571H2.17981Z" fill="#F00D1A"/>
<path d="M18.4 8.8H16.6V6.7C16.6 6.51435 16.5368 6.3363 16.4243 6.20503C16.3117 6.07375 16.1591 6 16 6C15.8409 6 15.6883 6.07375 15.5757 6.20503C15.4632 6.3363 15.4 6.51435 15.4 6.7V8.8H13.6C13.4409 8.8 13.2883 8.87375 13.1757 9.00502C13.0632 9.1363 13 9.31435 13 9.5C13 9.68565 13.0632 9.8637 13.1757 9.99498C13.2883 10.1263 13.4409 10.2 13.6 10.2H15.4V12.3C15.4 12.4857 15.4632 12.6637 15.5757 12.795C15.6883 12.9263 15.8409 13 16 13C16.1591 13 16.3117 12.9263 16.4243 12.795C16.5368 12.6637 16.6 12.4857 16.6 12.3V10.2H18.4C18.5591 10.2 18.7117 10.1263 18.8243 9.99498C18.9368 9.8637 19 9.68565 19 9.5C19 9.31435 18.9368 9.1363 18.8243 9.00502C18.7117 8.87375 18.5591 8.8 18.4 8.8Z" fill="#F00D1A"/>
</svg>
