<svg width="20" height="20" viewBox="0 0 20 20" fill="none" xmlns="http://www.w3.org/2000/svg">
<g clip-path="url(#clip0_859_6140)">
<path d="M9.9953 6.95492L9.44799 10.1461C9.36588 10.6247 9.8683 10.9897 10.2981 10.7637L13.1639 9.2571L16.0297 10.7637C16.4596 10.9897 16.962 10.6247 16.8799 10.1461L16.3326 6.95492L18.651 4.69499C18.9988 4.35601 18.8069 3.76538 18.3263 3.69558L15.1223 3.23003L13.6894 0.326631C13.4744 -0.108877 12.8534 -0.108877 12.6385 0.326631L11.2056 3.22999L8.00158 3.69554C7.521 3.76538 7.32908 4.35597 7.67686 4.69495L9.9953 6.95492ZM11.679 4.34538C11.8698 4.31765 12.0348 4.19777 12.1201 4.02484L13.1639 1.90987L14.2077 4.02484C14.2931 4.19777 14.458 4.31765 14.6489 4.34538L16.9829 4.68452L15.294 6.33081C15.1559 6.46542 15.0929 6.65937 15.1255 6.84945L15.5241 9.17402L13.4365 8.07652C13.2658 7.98679 13.0619 7.98679 12.8912 8.07652L10.8037 9.17402L11.2023 6.84945C11.2349 6.65937 11.1719 6.46542 11.0338 6.33081L9.3449 4.68452L11.679 4.34538Z" fill="#F00D1A"/>
<path d="M19.7433 13.8094C19.2657 13.0135 18.2614 12.7112 17.4239 13.1114L13.5952 14.9406C13.6612 13.9581 12.9773 13.0635 11.9856 12.8886L9.65164 12.4771C9.35387 12.4246 9.07949 12.2879 8.85816 12.0819C7.64801 10.9556 5.93043 10.6196 4.415 11.139V10.8203C4.415 10.4967 4.15266 10.2344 3.82906 10.2344H0.585938C0.262344 10.2344 0 10.4967 0 10.8203V18.6328C0 18.9564 0.262344 19.2187 0.585938 19.2187H3.82906C4.15266 19.2187 4.415 18.9564 4.415 18.6328V18.4159L8.38812 19.6295C9.19289 19.8753 10.0276 20 10.8691 20C12.5098 20 14.1052 19.5288 15.4827 18.6375L19.1777 16.2466C19.9923 15.7196 20.2425 14.6415 19.7433 13.8094ZM3.24312 18.0469H1.17188V11.4062H3.24312V18.0469ZM18.5411 15.2628L14.8461 17.6536C13.6586 18.422 12.2834 18.8281 10.8691 18.8281C10.1437 18.8281 9.42418 18.7207 8.73047 18.5088L4.415 17.1906V12.4047C5.61113 11.8155 7.06762 12.0164 8.05973 12.9397C8.44699 13.3002 8.92707 13.5393 9.44812 13.6312L11.7821 14.0427C12.207 14.1176 12.4907 14.5228 12.4157 14.9477C12.3413 15.3699 11.9407 15.6523 11.5187 15.5823C11.5121 15.5812 8.00277 14.9627 8.00277 14.9627C7.6841 14.9066 7.3802 15.1193 7.32398 15.438C7.26777 15.7567 7.48059 16.0606 7.79926 16.1168H7.7993L11.2955 16.7332C11.9003 16.8398 12.513 16.7563 13.0672 16.4915L17.9291 14.1687C18.2213 14.0291 18.5718 14.1345 18.7384 14.4122C18.9126 14.7027 18.8253 15.0788 18.5411 15.2628Z" fill="#F00D1A"/>
</g>
<defs>
<clipPath id="clip0_859_6140">
<rect width="20" height="20" fill="white"/>
</clipPath>
</defs>
</svg>
