<svg width="20" height="20" viewBox="0 0 20 20" fill="none" xmlns="http://www.w3.org/2000/svg">
<g clip-path="url(#clip0_859_6149)">
<path d="M18.2422 5.3125H15.3125V3.55469C15.3125 2.58543 14.5239 1.79688 13.5547 1.79688H1.75781C0.788555 1.79688 0 2.58543 0 3.55469V14.1016C0 14.3386 0.142773 14.5522 0.361719 14.6429C0.580703 14.7336 0.832695 14.6834 1.00027 14.5159L3.17238 12.3438H4.72656V14.1016C4.72656 15.0708 5.51512 15.8594 6.48438 15.8594H16.8276L18.9998 18.0315C19.1676 18.1994 19.4198 18.249 19.6383 18.1585C19.8573 18.0678 20 17.8541 20 17.6172V7.07031C20 6.10105 19.2114 5.3125 18.2422 5.3125ZM2.92969 11.1719C2.7743 11.1719 2.62527 11.2336 2.51539 11.3435L1.17188 12.687V3.55469C1.17188 3.2316 1.43473 2.96875 1.75781 2.96875H13.5547C13.8778 2.96875 14.1406 3.2316 14.1406 3.55469V5.3125H6.48438C5.51512 5.3125 4.72656 6.10105 4.72656 7.07031V11.1719H2.92969ZM18.8281 16.2026L17.4846 14.8591C17.3747 14.7492 17.2257 14.6875 17.0703 14.6875H6.48438C6.16129 14.6875 5.89844 14.4246 5.89844 14.1016V7.07031C5.89844 6.74723 6.16129 6.48438 6.48438 6.48438H18.2422C18.5653 6.48438 18.8281 6.74723 18.8281 7.07031V16.2026Z" fill="#F00D1A"/>
<path d="M10 8.82812H14.7266C15.0502 8.82812 15.3125 8.56578 15.3125 8.24219C15.3125 7.91859 15.0502 7.65625 14.7266 7.65625H10C9.67641 7.65625 9.41406 7.91859 9.41406 8.24219C9.41406 8.56578 9.67641 8.82812 10 8.82812Z" fill="#F00D1A"/>
<path d="M15.8984 10H8.82812C8.50453 10 8.24219 10.2623 8.24219 10.5859C8.24219 10.9095 8.50453 11.1719 8.82812 11.1719H15.8984C16.222 11.1719 16.4844 10.9095 16.4844 10.5859C16.4844 10.2623 16.222 10 15.8984 10Z" fill="#F00D1A"/>
<path d="M14.7266 12.3438H10C9.67641 12.3438 9.41406 12.6061 9.41406 12.9297C9.41406 13.2533 9.67641 13.5156 10 13.5156H14.7266C15.0502 13.5156 15.3125 13.2533 15.3125 12.9297C15.3125 12.6061 15.0502 12.3438 14.7266 12.3438Z" fill="#F00D1A"/>
</g>
<defs>
<clipPath id="clip0_859_6149">
<rect width="20" height="20" fill="white"/>
</clipPath>
</defs>
</svg>
