<svg class="svg-rank-line" version="1" xmlns="http://www.w3.org/2000/svg" width="500" height="352" viewBox="0 0 375.000000 264.000000"><path fill="#fff" d="M38.2 1c-1.3.6-4.2 2.3-6.5 3.9s-6.5 3.9-9.2 5.2c-2.8 1.2-7.5 4.1-10.5 6.4-3 2.3-7 5-8.7 6C1.5 23.6 0 24.8 0 25.3c0 1.1 6.9-3.1 11.7-7.1 2.1-1.8 7-4.8 10.8-6.7C26.4 9.7 31 7 32.9 5.6 38.2 1.7 42.1.7 47.2 2c6 1.6 8.6 3.5 10.3 7.6 2 4.9 1.9 6.8-.8 10.1-4.3 5.2-7.7 12.1-7.7 15.6 0 5.4 5.9 12.4 11.7 14 6.2 1.6 8.1 4.5 6.3 9.5-.7 2.1-2.1 4.9-3.1 6.4-2.3 3.2-2.4 6.6-.3 8.9 2.6 2.8 8.4 17.2 8.4 20.8 0 2.6-1.8 5.7-8.5 14.8L55 121.2v6.6c0 3.6-.5 9.2-1.2 12.3-1 5-.9 6.6.7 12.1 2.6 8.8 3.6 10.6 9.7 16.9 4.9 5.1 5.9 5.7 11.5 6.7 3.9.7 7.4.7 9.4.2 4.8-1.4 17-1.4 20.4 0 1.7.6 6.4 1.8 10.5 2.6s9.7 2.5 12.6 3.8c4.3 2 5.2 2.9 5.8 5.7.5 2.6.1 4-1.9 6.9-1.8 2.6-2.5 4.9-2.5 8.3 0 4.3.4 5.2 4.3 8.8 2.3 2.2 5.9 4.9 8.1 6 6.5 3.4 17.6 10.8 17.6 11.7 0 .5 3 4 6.6 7.7 3.7 3.8 7.3 8.4 8.1 10.4 1.8 4.4 5.4 10.3 5.9 9.8.2-.2-1.1-3.3-2.9-6.9-2.1-4.1-6.7-10.3-12.1-16.2-8.5-9.2-11.1-11.2-22-17.2-2.7-1.4-6.7-4.4-8.8-6.6-4.6-4.8-5-8.9-1.3-15.2 2.8-4.7 2.6-9.3-.4-11.9-2-1.8-11.3-5.2-16.6-6.1-2.2-.4-6.7-1.6-10-2.6-5.2-1.5-7.3-1.6-15-.8-4.9.6-10.2 1-11.7.9-4.8-.1-10.6-2.1-12.6-4.4-7.4-8.2-9.1-10.9-11.2-17.2-2.1-6.2-2.2-7.5-1.2-12.5.7-3.1 1.2-8.4 1.2-11.9 0-6 1.7-11.3 4.5-13.6 1.5-1.3 10-12.6 11.4-15.3 1.5-2.9 1.4-8.8-.3-12.5-3.7-8.2-5.8-12.4-7.3-14.8-1.6-2.5-1.5-2.8 1.5-8.9 4.9-9.7 4.1-12.9-3.6-15.4C55.5 46.3 50 40.2 50 34.9c0-2.4 3.9-9.7 7.7-14.2 2.9-3.6 2.9-7.2 0-12.7-1.9-3.6-3.2-4.7-7.3-6.2C44.9-.1 41.6-.3 38.2 1z"/></svg>