<svg width="23" height="24" viewBox="0 0 23 24" fill="none" xmlns="http://www.w3.org/2000/svg">
<path fill-rule="evenodd" clip-rule="evenodd" d="M11.9926 17.5526L7.72947 20.8173C6.76467 21.5562 5.37637 20.866 5.37437 19.6512L5.37071 17.4278C3.38576 16.9496 1.91675 15.1543 1.91675 13.0214V7.41114C1.91675 4.90941 3.93504 2.87988 6.42655 2.87988H16.5736C19.0651 2.87988 21.0834 4.90941 21.0834 7.41114V13.0214C21.0834 15.5231 19.0651 17.5526 16.5736 17.5526H11.9926ZM7.28954 18.7375L11.0862 15.8299C11.2534 15.702 11.4579 15.6326 11.6683 15.6326H16.5736C18.0049 15.6326 19.1667 14.4643 19.1667 13.0214V7.41114C19.1667 5.96816 18.0049 4.79988 16.5736 4.79988H6.42655C4.99522 4.79988 3.83341 5.96816 3.83341 7.41114V13.0214C3.83341 14.4372 4.95376 15.5931 6.35396 15.6316C6.87219 15.6459 7.28515 16.0704 7.286 16.5897L7.28954 18.7375Z" fill="white"/>
</svg>
