<svg width="20" height="20" viewBox="0 0 20 20" fill="none" xmlns="http://www.w3.org/2000/svg">
<path fill-rule="evenodd" clip-rule="evenodd" d="M12.5001 4.16683C12.5001 2.32588 13.9925 0.833496 15.8334 0.833496C17.6744 0.833496 19.1667 2.32588 19.1667 4.16683C19.1667 6.00778 17.6744 7.50016 15.8334 7.50016C14.6956 7.50016 13.6909 6.93006 13.0894 6.05992L7.30677 8.87882C7.43192 9.22924 7.50008 9.60674 7.50008 10.0002C7.50008 10.3664 7.44102 10.7189 7.33189 11.0485L13.0814 13.9521C13.6819 13.0754 14.6905 12.5002 15.8334 12.5002C17.6744 12.5002 19.1667 13.9925 19.1667 15.8335C19.1667 17.6744 17.6744 19.1668 15.8334 19.1668C13.9925 19.1668 12.5001 17.6744 12.5001 15.8335C12.5001 15.732 12.5046 15.6316 12.5135 15.5324L6.42102 12.4557C5.8276 13.0007 5.03603 13.3335 4.16675 13.3335C2.3258 13.3335 0.833416 11.8411 0.833416 10.0002C0.833416 8.15921 2.3258 6.66683 4.16675 6.66683C5.00525 6.66683 5.77143 6.97643 6.35723 7.48755L12.5151 4.48573C12.5052 4.38077 12.5001 4.2744 12.5001 4.16683ZM17.5001 4.16683C17.5001 3.24635 16.7539 2.50016 15.8334 2.50016C14.9129 2.50016 14.1667 3.24635 14.1667 4.16683C14.1667 5.0873 14.9129 5.8335 15.8334 5.8335C16.7539 5.8335 17.5001 5.0873 17.5001 4.16683ZM17.5001 15.8335C17.5001 14.913 16.7539 14.1668 15.8334 14.1668C14.9129 14.1668 14.1667 14.913 14.1667 15.8335C14.1667 16.754 14.9129 17.5002 15.8334 17.5002C16.7539 17.5002 17.5001 16.754 17.5001 15.8335ZM4.16675 8.3335C5.08722 8.3335 5.83342 9.07969 5.83342 10.0002C5.83342 10.9206 5.08722 11.6668 4.16675 11.6668C3.24627 11.6668 2.50008 10.9206 2.50008 10.0002C2.50008 9.07969 3.24627 8.3335 4.16675 8.3335Z" fill="white"/>
</svg>
