<svg width="14" height="12" viewBox="0 0 14 12" fill="none" xmlns="http://www.w3.org/2000/svg">
<path d="M8.39959 11.9998C8.48432 11.9998 8.56809 11.9818 8.64539 11.9472C8.7227 11.9125 8.79179 11.8618 8.84813 11.7986L13.6479 6.39877C13.7455 6.28884 13.7993 6.14698 13.7993 6.00003C13.7993 5.85308 13.7455 5.71122 13.6479 5.60128L8.84813 0.201503C8.7673 0.110515 8.66071 0.0462619 8.54251 0.0172707C8.4243 -0.0117204 8.30008 -0.00407814 8.18632 0.039183C8.07256 0.0824442 7.97465 0.159278 7.90559 0.259487C7.83652 0.359696 7.79956 0.478541 7.79961 0.600246V3.04143C6.0331 3.24332 0.981295 4.42419 0.00591183 11.3158C-0.0119295 11.4415 0.0106068 11.5697 0.0702734 11.6818C0.12994 11.794 0.223658 11.8843 0.337932 11.9398C0.452205 11.9952 0.581136 12.013 0.706156 11.9905C0.831176 11.968 0.945833 11.9065 1.03361 11.8146C3.29277 9.45367 6.50708 9.0635 7.79961 9.00549V11.3998C7.79961 11.5589 7.86282 11.7115 7.97534 11.8241C8.08786 11.9366 8.24046 11.9998 8.39959 11.9998ZM12.3967 6.00003L8.99957 9.82187V8.39993C8.99953 8.24603 8.94035 8.09802 8.83426 7.98652C8.72818 7.87502 8.5833 7.80855 8.42959 7.80086C5.98665 7.75342 3.58709 8.45035 1.54965 9.79908C3.17793 4.1821 8.16842 4.18396 8.38963 4.2001C8.54948 4.19758 8.70279 4.13625 8.82029 4.02785C8.87704 3.972 8.92211 3.90542 8.95289 3.83199C8.98366 3.75856 8.99953 3.67974 8.99957 3.60013V2.17818L12.3967 6.00003Z" fill="#BDBDBD"/>
</svg>
