<svg version="1" xmlns="http://www.w3.org/2000/svg" width="500" height="826.667" viewBox="0 0 375.000000 620.000000"><path d="M368.5 21.7c-12.2 9.6-15.8 14-23.2 28.8-18.7 37.7-26.5 50.5-37 60.7-5.2 5.2-6.5 7.1-7 10.4-.5 3.7-.2 4.2 5.2 9.2 5.2 4.8 5.6 5.5 5 8.5-1.2 5.7-3.7 10.1-8.9 15.2-2.9 2.7-5.7 6.1-6.4 7.5-2.2 4.4-3.8 6.9-5.7 9-1.9 2.1-1.5 7.1 1 12.1.8 1.5 2.3 5.9 3.4 9.9 1.8 6.4 1.9 7.5.6 9.9-1.9 3.5-6 7.5-12 11.6-10 6.9-10.4 7-28.5 7-10.5 0-17.2.4-18.5 1.1-1.1.7-3.2 1.6-4.6 2.2-2.7 1-13 17.3-14.3 22.4-.5 2.3-1.6 3-7.4 4.7-3.7 1.1-9.2 2.4-12.2 2.9-6.6 1.1-10.6 2.5-18 6.1-4.5 2.1-6.3 3.8-10.2 9.6-3.7 5.5-4.7 7.8-4.6 10.9.1 3.2-.4 4.3-2.6 6-1.5 1.2-5.6 4.7-9 7.9-3.5 3.1-9.4 7.2-13.2 9.1-3.9 1.9-9.2 5.6-12.2 8.6-6.1 6.1-12.2 17.2-12.2 22.4 0 3-.5 3.7-4.3 5.5-4.7 2.3-13.9 2.9-24.9 1.6-5.9-.7-7-.5-10.5 1.5-7.4 4.5-8.5 5.9-13.2 17.5-.7 1.6-1.5 6.1-1.8 10-.3 4.2-1.3 8.2-2.4 10.1-1.1 1.7-1.9 3.8-1.9 4.6 0 2.1-21.1 21.5-24.9 22.9-2.4 1-4.5 9.7-3.1 13.3 1.7 4.6 1.2 7-1.9 8.9-3.6 2.1-7.4 2.2-9.1.2-.8-1-3.1-1.5-7.1-1.5-7.7 0-10.9 1.5-10.9 5.1 0 2.7.1 2.7 3.3 1.7 5.9-1.9 10.2-2.1 11.6-.4 2 2.4 11.5 2.1 15.7-.5 4.1-2.5 4.8-5 4-13.2l-.7-6.3 14-12.8c8.8-7.9 14.4-13.8 14.8-15.4.3-1.4 1.2-3.7 1.9-5.1.8-1.4 1.4-4.7 1.4-7.2 0-4.7 2.5-14.7 4.1-16.4.5-.5.9-1.6.9-2.5 0-.9 1.7-3 3.7-4.7 6.7-5.3 7.6-5.5 15.6-4.2 10.2 1.7 21.8 0 26.7-4 2.6-2.1 3.6-3.8 4-6.8.8-5.7 5.8-15.1 10.7-20 2.3-2.3 7.7-6 12-8.2 4.7-2.3 9.4-5.6 11.6-8 2-2.3 5.9-5.7 8.6-7.6 5-3.6 8.1-8.9 8.1-13.8 0-5.9 9.2-15.1 16.4-16.4 1.7-.3 4-1.1 5.1-1.8 1.1-.7 4.5-1.6 7.5-1.9 13.4-1.8 22-5.8 22-10.4 0-1.1 2.4-5.9 5.2-10.7 5-8.2 5.6-8.8 10.5-10.5 4.3-1.5 7.2-1.7 17.1-1.3 13.7.7 20.9-.6 26.2-4.6 4-3 6.6-4.6 9.7-6 1.2-.6 2.7-2 3.4-3.3.6-1.3 2.5-3.8 4-5.6 4.2-4.7 3.5-11.9-2.2-25.8-1.8-4.4-2.1-5.9-1.2-7.2.7-.9 2.4-4 3.9-6.7 1.5-2.8 4.4-6.5 6.5-8.3 4.3-3.7 9.9-12.3 9.9-15.3 0-1.1.5-2.9 1-3.9 1.7-3.2 0-7.1-5.7-12.5l-5.4-5.1 6-6.6c12.9-13.9 16-18.8 33.2-52.7 11.8-23.2 14.3-26.9 25.7-36.3 3.7-3.1 4.3-4.1 4-6.7l-.3-3.1-6 4.7z"/></svg>