<svg width="16" height="16" viewBox="0 0 16 16" fill="none" xmlns="http://www.w3.org/2000/svg">
<path d="M8 0C3.60594 0 0 3.60594 0 8C0 12.3941 3.60594 16 8 16C12.3941 16 16 12.3941 16 8C16 3.60594 12.3941 0 8 0ZM8.9375 11.75C8.9375 12.2668 8.51681 12.6875 8 12.6875C7.48319 12.6875 7.0625 12.2668 7.0625 11.75V7.0625C7.0625 6.54569 7.48319 6.125 8 6.125C8.51681 6.125 8.9375 6.54569 8.9375 7.0625V11.75ZM8 5.1875C7.48319 5.1875 7.0625 4.76681 7.0625 4.25C7.0625 3.73319 7.48319 3.3125 8 3.3125C8.51681 3.3125 8.9375 3.73319 8.9375 4.25C8.9375 4.76681 8.51681 5.1875 8 5.1875Z" fill="white"/>
</svg>
