<svg width="20" height="20" viewBox="0 0 20 20" fill="none" xmlns="http://www.w3.org/2000/svg"><path d="M10.012 14.167a4.171 4.171 0 0 1-4.166-4.166 4.171 4.171 0 0 1 4.166-4.167 4.171 4.171 0 0 1 4.167 4.167 4.171 4.171 0 0 1-4.167 4.166zm0-7.083a2.92 2.92 0 0 0-2.916 2.917 2.92 2.92 0 0 0 2.916 2.916 2.92 2.92 0 0 0 2.917-2.916 2.92 2.92 0 0 0-2.917-2.917z" fill="#F00D1A"/><path d="M11.398 20H8.626a1.445 1.445 0 0 1-1.4-1.126l-.351-1.56a7.656 7.656 0 0 1-1.629-.946l-1.519.48a1.444 1.444 0 0 1-1.686-.657L.659 13.8a1.457 1.457 0 0 1 .268-1.778l1.177-1.082a8.435 8.435 0 0 1 0-1.882L.931 7.982a1.455 1.455 0 0 1-.277-1.776l1.39-2.404c.322-.577 1.032-.851 1.68-.652l1.521.48a7.667 7.667 0 0 1 1.629-.945l.351-1.562A1.444 1.444 0 0 1 8.626 0h2.772c.667 0 1.256.473 1.4 1.126l.352 1.56c.572.242 1.117.559 1.628.946l1.52-.48c.653-.201 1.36.074 1.686.657l1.382 2.39c.33.591.219 1.32-.268 1.778l-1.177 1.082a8.64 8.64 0 0 1 0 1.882l1.171 1.076a1.453 1.453 0 0 1 .277 1.776l-1.39 2.405c-.322.576-1.03.852-1.68.65l-1.522-.48a7.667 7.667 0 0 1-1.628.945l-.352 1.562A1.442 1.442 0 0 1 11.398 20zm-6.024-4.95c.143 0 .284.048.397.142.573.47 1.197.834 1.858 1.077.2.074.347.243.393.45l.425 1.883c.019.086.094.148.18.148H11.4a.186.186 0 0 0 .18-.147l.425-1.885a.625.625 0 0 1 .393-.449 6.432 6.432 0 0 0 1.858-1.077.623.623 0 0 1 .586-.114l1.834.579c.087.027.18-.005.22-.077l1.39-2.404a.204.204 0 0 0-.04-.241l-1.406-1.293a.625.625 0 0 1-.195-.553c.055-.369.083-.736.083-1.09 0-.354-.028-.72-.083-1.09a.625.625 0 0 1 .195-.552l1.41-1.297a.204.204 0 0 0 .032-.245L16.9 4.425a.191.191 0 0 0-.227-.082l-1.831.578a.624.624 0 0 1-.586-.114 6.42 6.42 0 0 0-1.858-1.078.624.624 0 0 1-.393-.449l-.424-1.883a.191.191 0 0 0-.183-.147H8.626a.186.186 0 0 0-.18.147l-.425 1.885a.626.626 0 0 1-.393.449 6.413 6.413 0 0 0-1.857 1.077.627.627 0 0 1-.585.114L3.35 4.343c-.085-.026-.18.005-.22.077L1.74 6.823a.204.204 0 0 0 .042.244l1.405 1.29c.153.14.226.348.195.553-.055.37-.082.736-.082 1.09 0 .354.027.72.082 1.09a.626.626 0 0 1-.195.553l-1.41 1.296a.204.204 0 0 0-.032.245l1.381 2.39c.044.079.14.11.227.083l1.832-.579a.608.608 0 0 1 .188-.029z" fill="#F00D1A"/></svg>