<svg width="20" height="20" viewBox="0 0 20 20" fill="none" xmlns="http://www.w3.org/2000/svg"><g clip-path="url(#a)" fill="#F00D1A"><path d="M9.995 6.955l-.547 3.191a.586.586 0 0 0 .85.618l2.866-1.507 2.866 1.507a.586.586 0 0 0 .85-.618l-.547-3.191 2.318-2.26a.586.586 0 0 0-.325-1l-3.204-.465L13.69.327a.586.586 0 0 0-1.05 0L11.206 3.23l-3.204.466a.586.586 0 0 0-.325.999l2.318 2.26zm1.684-2.61a.586.586 0 0 0 .441-.32l1.044-2.115 1.044 2.115c.085.173.25.293.44.32l2.335.34-1.689 1.646a.586.586 0 0 0-.168.518l.398 2.325-2.087-1.097a.586.586 0 0 0-.546 0l-2.087 1.097.398-2.325a.586.586 0 0 0-.168-.518l-1.69-1.646 2.335-.34zM19.743 13.81a1.8 1.8 0 0 0-2.32-.699l-3.828 1.83a1.953 1.953 0 0 0-1.61-2.052l-2.333-.412a1.56 1.56 0 0 1-.794-.395 4.424 4.424 0 0 0-4.443-.943v-.319a.586.586 0 0 0-.586-.586H.586A.586.586 0 0 0 0 10.82v7.813c0 .323.262.586.586.586h3.243a.586.586 0 0 0 .586-.586v-.217l3.973 1.213a8.486 8.486 0 0 0 7.095-.992l3.695-2.39a1.8 1.8 0 0 0 .565-2.438zm-16.5 4.237H1.172v-6.64h2.071v6.64zm15.298-2.784l-3.695 2.39a7.305 7.305 0 0 1-6.116.856L4.415 17.19v-4.786a3.25 3.25 0 0 1 3.645.535c.387.36.867.6 1.388.691l2.334.412a.781.781 0 0 1-.263 1.54l-3.516-.62a.586.586 0 0 0-.204 1.154l3.497.616a2.914 2.914 0 0 0 1.771-.242l4.862-2.322a.628.628 0 0 1 .612 1.094z"/></g><defs><clipPath id="a"><path fill="#fff" d="M0 0h20v20H0z"/></clipPath></defs></svg>