<svg width="20" height="20" viewBox="0 0 20 20" fill="none" xmlns="http://www.w3.org/2000/svg"><path d="M11.125 16.75h-3a.375.375 0 0 1 0-.75h3c.62 0 1.125-.505 1.125-1.125v-3.75a.375.375 0 0 1 .75 0v3.75c0 1.034-.84 1.875-1.875 1.875zM18.625 9.25h-7.5a.375.375 0 0 1 0-.75h7.5a.375.375 0 0 1 0 .75z" fill="#F00D1A" stroke="#F00D1A" stroke-width=".3"/><path d="M7 19c-.165 0-.326-.028-.479-.082L2.03 17.421A1.499 1.499 0 0 1 1 16V2.5C1 1.673 1.673 1 2.5 1c.167 0 .329.028.48.083L7.47 2.579A1.497 1.497 0 0 1 8.5 4v13.5c0 .827-.673 1.5-1.5 1.5zM2.5 1.75a.75.75 0 0 0-.75.75V16a.75.75 0 0 0 .516.71l4.5 1.5c.492.174.984-.22.984-.71V4a.747.747 0 0 0-.516-.709l-4.5-1.5A.69.69 0 0 0 2.5 1.75z" fill="#F00D1A" stroke="#F00D1A" stroke-width=".3"/><path d="M12.625 7a.375.375 0 0 1-.375-.375v-3.75c0-.62-.505-1.125-1.125-1.125H2.5a.375.375 0 0 1 0-.75h8.625C12.159 1 13 1.841 13 2.875v3.75a.375.375 0 0 1-.375.375zM15.625 12.25a.375.375 0 0 1-.265-.64l2.734-2.734-2.735-2.734a.375.375 0 0 1 .53-.53l3 3a.375.375 0 0 1 0 .53l-3 3a.376.376 0 0 1-.264.109z" fill="#F00D1A" stroke="#F00D1A" stroke-width=".3"/></svg>