<svg width="20" height="20" viewBox="0 0 20 20" fill="none" xmlns="http://www.w3.org/2000/svg"><path d="M1.875 7.632v9.531a2.106 2.106 0 0 0 2.113 2.107h12.03a2.106 2.106 0 0 0 2.107-2.107v-9.53a2.113 2.113 0 0 0-2.106-2.113H14.68c.185-.19.348-.4.488-.625a3.033 3.033 0 0 0 .075-2.975A2.363 2.363 0 0 0 13.125.732a3.244 3.244 0 0 0-2.5 1.056c-.25.265-.46.564-.625.888a3.8 3.8 0 0 0-.594-.888 3.244 3.244 0 0 0-2.5-1.056 2.375 2.375 0 0 0-2.125 1.181 3.031 3.031 0 0 0 .075 2.975c.14.226.303.435.488.625H3.988a2.113 2.113 0 0 0-2.113 2.12zm15 0v9.531a.854.854 0 0 1-.856.857h-5.394l.044-11.25h5.369a.863.863 0 0 1 .837.862zm-3.75-5.625a1.119 1.119 0 0 1 1.044.556 1.744 1.744 0 0 1-.082 1.725c-.268.47-.974 1.25-2.675 1.25h-.787c0-.756.144-2.1.869-2.893a2.044 2.044 0 0 1 1.631-.663v.025zM5.919 4.263a1.744 1.744 0 0 1-.081-1.725 1.119 1.119 0 0 1 1.037-.556 2.044 2.044 0 0 1 1.6.625c.731.813.863 2.156.9 2.913h-.781c-1.719 0-2.406-.788-2.675-1.257zm-2.794 3.37a.862.862 0 0 1 .863-.863h5.387l-.044 11.25H3.988a.856.856 0 0 1-.863-.857v-9.53z" fill="#F00D1A"/></svg>