<svg width="20" height="20" viewBox="0 0 20 20" fill="none" xmlns="http://www.w3.org/2000/svg"><g clip-path="url(#a)" fill="#F00D1A"><path d="M18.242 5.313h-2.93V3.554a1.76 1.76 0 0 0-1.757-1.758H1.758A1.76 1.76 0 0 0 0 3.555v10.547a.586.586 0 0 0 1 .414l2.172-2.172h1.555v1.758c0 .969.788 1.757 1.757 1.757h10.344L19 18.032a.586.586 0 0 0 1-.415V7.07a1.76 1.76 0 0 0-1.758-1.758zM2.93 11.171a.586.586 0 0 0-.415.171l-1.343 1.344V3.555c0-.323.263-.586.586-.586h11.797c.323 0 .586.263.586.586v1.757H6.484A1.76 1.76 0 0 0 4.727 7.07v4.102H2.93zm15.898 5.03l-1.343-1.343a.586.586 0 0 0-.415-.171H6.484a.587.587 0 0 1-.586-.586V7.07c0-.323.263-.586.586-.586h11.758c.323 0 .586.263.586.586v9.133z"/><path d="M10 8.828h4.727a.586.586 0 0 0 0-1.172H10a.586.586 0 0 0 0 1.172zM15.898 10h-7.07a.586.586 0 1 0 0 1.172h7.07a.586.586 0 0 0 0-1.172zM14.727 12.344H10a.586.586 0 1 0 0 1.172h4.727a.586.586 0 1 0 0-1.172z"/></g><defs><clipPath id="a"><path fill="#fff" d="M0 0h20v20H0z"/></clipPath></defs></svg>