<svg width="20" height="20" viewBox="0 0 20 20" fill="none" xmlns="http://www.w3.org/2000/svg"><path d="M9 9a4 4 0 1 0 0-8 4 4 0 0 0 0 8zm0-6.857a2.857 2.857 0 1 1 0 5.714 2.857 2.857 0 0 1 0-5.714zM8.5 11a7.545 7.545 0 0 0-5.3 2.178 7.401 7.401 0 0 0-2.2 5.25c0 .152.06.297.169.405a.58.58 0 0 0 .408.167h13.846c.153 0 .3-.06.408-.167a.569.569 0 0 0 .169-.404 7.402 7.402 0 0 0-2.2-5.25A7.545 7.545 0 0 0 8.5 11zm-6.32 6.857a6.264 6.264 0 0 1 2.04-4.073 6.38 6.38 0 0 1 4.28-1.645 6.38 6.38 0 0 1 4.28 1.645 6.264 6.264 0 0 1 2.04 4.073H2.18zM18.4 8.8h-1.8V6.7a.763.763 0 0 0-.176-.495A.56.56 0 0 0 16 6a.56.56 0 0 0-.424.205.763.763 0 0 0-.176.495v2.1h-1.8a.56.56 0 0 0-.424.205A.763.763 0 0 0 13 9.5c0 .186.063.364.176.495a.56.56 0 0 0 .424.205h1.8v2.1c0 .186.063.364.176.495A.56.56 0 0 0 16 13a.56.56 0 0 0 .424-.205.763.763 0 0 0 .176-.495v-2.1h1.8a.56.56 0 0 0 .424-.205A.763.763 0 0 0 19 9.5a.763.763 0 0 0-.176-.495.56.56 0 0 0-.424-.205z" fill="#F00D1A"/></svg>