<?xml version="1.0" standalone="no"?>
<!DOCTYPE svg PUBLIC "-//W3C//DTD SVG 20010904//EN"
 "http://www.w3.org/TR/2001/REC-SVG-20010904/DTD/svg10.dtd">
<svg class="svg-rank-line" version="1.0" xmlns="http://www.w3.org/2000/svg"
 width="375.000000pt" height="264.000000pt" viewBox="0 0 375.000000 264.000000"
 preserveAspectRatio="xMidYMid meet">
<metadata>
Created by potrace 1.16, written by Peter Selinger 2001-2019
</metadata>
<g transform="translate(0.000000,264.000000) scale(0.100000,-0.100000)"
fill="#000000" stroke="none">
<path fill="#fff" id="pathDashLine2" d="M382 2630 c-13 -6 -42 -23 -65 -39 -23 -16 -65 -39 -92 -52 -28 -12
-75 -41 -105 -64 -30 -23 -70 -50 -87 -60 -18 -11 -33 -23 -33 -28 0 -11 69
31 117 71 21 18 70 48 108 67 39 18 85 45 104 59 53 39 92 49 143 36 60 -16
86 -35 103 -76 20 -49 19 -68 -8 -101 -43 -52 -77 -121 -77 -156 0 -54 59
-124 117 -140 62 -16 81 -45 63 -95 -7 -21 -21 -49 -31 -64 -23 -32 -24 -66
-3 -89 26 -28 84 -172 84 -208 0 -26 -18 -57 -85 -148 l-85 -115 0 -66 c0 -36
-5 -92 -12 -123 -10 -50 -9 -66 7 -121 26 -88 36 -106 97 -169 49 -51 59 -57
115 -67 39 -7 74 -7 94 -2 48 14 170 14 204 0 17 -6 64 -18 105 -26 41 -8 97
-25 126 -38 43 -20 52 -29 58 -57 5 -26 1 -40 -19 -69 -18 -26 -25 -49 -25
-83 0 -43 4 -52 43 -88 23 -22 59 -49 81 -60 65 -34 176 -108 176 -117 0 -5
30 -40 66 -77 37 -38 73 -84 81 -104 18 -44 54 -103 59 -98 2 2 -11 33 -29 69
-21 41 -67 103 -121 162 -85 92 -111 112 -220 172 -27 14 -67 44 -88 66 -46
48 -50 89 -13 152 28 47 26 93 -4 119 -20 18 -113 52 -166 61 -22 4 -67 16
-100 26 -52 15 -73 16 -150 8 -49 -6 -102 -10 -117 -9 -48 1 -106 21 -126 44
-74 82 -91 109 -112 172 -21 62 -22 75 -12 125 7 31 12 84 12 119 0 60 17 113
45 136 15 13 100 126 114 153 15 29 14 88 -3 125 -37 82 -58 124 -73 148 -16
25 -15 28 15 89 49 97 41 129 -36 154 -67 23 -122 84 -122 137 0 24 39 97 77
142 29 36 29 72 0 127 -19 36 -32 47 -73 62 -55 19 -88 21 -122 8z"/>
</g>
</svg>
