<svg width="18" height="18" viewBox="0 0 18 18" fill="none" xmlns="http://www.w3.org/2000/svg">
<path d="M13.4998 9C12.15 9 10.9422 9.59691 10.1175 10.5381L7.26119 8.78014C7.40744 8.37875 7.4999 7.95168 7.4999 7.49988C7.4999 7.2047 7.45758 6.92073 7.39303 6.64444L11.1899 4.89239C11.7398 5.56334 12.5644 5.99985 13.5 5.99985C15.156 5.99985 16.4999 4.65662 16.4999 2.99993C16.4999 1.34323 15.1557 0 13.4998 0C11.8424 0 10.4998 1.34323 10.4998 2.99993C10.4998 3.18287 10.5225 3.35949 10.5531 3.53386L6.76074 5.28438C6.07744 4.35779 4.98825 3.74985 3.74983 3.74985C1.67847 3.75007 -0.000244141 5.42856 -0.000244141 7.49993C-0.000244141 9.57129 1.67847 11.25 3.74983 11.25C4.82781 11.25 5.79329 10.7885 6.47729 10.0591L9.32939 11.8141C9.11832 12.3354 8.99976 12.9031 8.99976 13.5C8.99976 15.9858 11.0139 18 13.4998 18C15.9842 18 17.9998 15.9858 17.9998 13.5C17.9998 11.0142 15.9842 9 13.4998 9Z" fill="#F00D1A"/>
</svg>
